<svg width="21" height="14" viewBox="0 0 21 14" fill="none" xmlns="http://www.w3.org/2000/svg">
<g clip-path="url(#clip0_4_3)">
<path fill-rule="evenodd" clip-rule="evenodd" d="M20.8132 6.92899C20.4185 8.95455 19.4773 10.6078 17.9899 11.8885C16.5022 13.1696 14.7858 13.81 12.8407 13.81C12.7649 13.81 12.3949 13.7965 11.7307 13.7697L12.4992 9.82624H13.1055C15.3034 9.82624 16.5905 8.86049 16.9669 6.92899C17.3223 5.10505 16.4201 4.19271 14.2601 4.19271H12.9906L11.1283 13.7496H7.37668L9.99181 0.329712H14.8802C17.116 0.329712 18.7618 0.926766 19.8176 2.12037C20.8734 3.31439 21.2053 4.91702 20.8132 6.92899ZM7.94083 3.95127C7.65015 3.95127 7.37857 4.04877 7.1261 4.24301C6.87323 4.43766 6.71312 4.70928 6.64523 5.05786C6.58247 5.37977 6.62036 5.73539 6.75947 6.1242L6.94176 6.64732C7.27136 7.61307 7.34612 8.55869 7.16581 9.4842C6.93315 10.6782 6.29644 11.7245 5.25623 12.6229C4.21578 13.5217 3.05147 13.9709 1.76305 13.9709C1.11883 13.9709 0.549861 13.8433 0.0565186 13.5886L0.813229 9.70552C1.10976 9.9338 1.42862 10.0476 1.76968 10.0476C2.08531 10.0476 2.36328 9.95048 2.60336 9.75582C2.84312 9.56158 2.99344 9.31008 3.0536 9.00133C3.08233 8.85395 2.98365 8.45156 2.75826 7.79414C2.40876 6.73475 2.33628 5.68157 2.5402 4.63534C2.78581 3.37475 3.42062 2.28829 4.44481 1.37594C5.4686 0.464012 6.56826 0.00779629 7.74299 0.00779629C8.27352 0.00779629 8.76805 0.0952334 9.22673 0.269353L8.47791 4.11223C8.22078 4.00509 8.04181 3.95127 7.94083 3.95127Z" fill="black"/>
</g>
<defs>
<clipPath id="clip0_4_3">
<rect width="21" height="14" fill="white"/>
</clipPath>
</defs>
</svg>
